<mxfile host="65bd71144e">
    <diagram id="sxfQLZgQ5Q-LuLaKWe1a" name="Página-1">
        <mxGraphModel dx="1570" dy="390" grid="1" gridSize="10" guides="1" tooltips="1" connect="1" arrows="1" fold="1" page="1" pageScale="1" pageWidth="827" pageHeight="1169" math="0" shadow="0">
            <root>
                <mxCell id="0"/>
                <mxCell id="1" parent="0"/>
                <mxCell id="18" value="" style="edgeStyle=none;html=1;fontColor=#0d0c0c;" edge="1" parent="1" source="19" target="21">
                    <mxGeometry relative="1" as="geometry"/>
                </mxCell>
                <mxCell id="19" value="INICIO" style="ellipse;whiteSpace=wrap;html=1;fillColor=#60a917;strokeColor=#2D7600;fontColor=#ffffff;" vertex="1" parent="1">
                    <mxGeometry x="780" y="470" width="120" height="80" as="geometry"/>
                </mxCell>
                <mxCell id="20" value="" style="edgeStyle=none;html=1;fontColor=#0d0c0c;" edge="1" parent="1" source="21" target="24">
                    <mxGeometry relative="1" as="geometry"/>
                </mxCell>
                <mxCell id="21" value="a, b, c" style="shape=parallelogram;perimeter=parallelogramPerimeter;whiteSpace=wrap;html=1;fixedSize=1;fillColor=#0050ef;strokeColor=#001DBC;fontColor=#ffffff;" vertex="1" parent="1">
                    <mxGeometry x="780" y="640" width="120" height="60" as="geometry"/>
                </mxCell>
                <mxCell id="22" value="" style="edgeStyle=none;html=1;fontColor=#0d0c0c;" edge="1" parent="1" source="24" target="26">
                    <mxGeometry relative="1" as="geometry">
                        <Array as="points">
                            <mxPoint x="1080" y="815"/>
                        </Array>
                    </mxGeometry>
                </mxCell>
                <mxCell id="23" value="" style="edgeStyle=none;html=1;fontColor=#0d0c0c;" edge="1" parent="1" source="24" target="28">
                    <mxGeometry relative="1" as="geometry">
                        <Array as="points">
                            <mxPoint x="660" y="815"/>
                        </Array>
                    </mxGeometry>
                </mxCell>
                <mxCell id="24" value="a==0" style="rhombus;whiteSpace=wrap;html=1;fillColor=#6a00ff;strokeColor=#3700CC;fontColor=#ffffff;" vertex="1" parent="1">
                    <mxGeometry x="790" y="770" width="100" height="90" as="geometry"/>
                </mxCell>
                <mxCell id="25" value="" style="edgeStyle=none;html=1;exitX=0.508;exitY=0.838;exitDx=0;exitDy=0;exitPerimeter=0;fontColor=#0d0c0c;" edge="1" parent="1" source="26">
                    <mxGeometry relative="1" as="geometry">
                        <mxPoint x="840" y="1420" as="targetPoint"/>
                        <Array as="points">
                            <mxPoint x="1080" y="1420"/>
                        </Array>
                    </mxGeometry>
                </mxCell>
                <mxCell id="26" value="No se puede realizar una ecuaciòn cuadratica" style="shape=document;whiteSpace=wrap;html=1;boundedLbl=1;fillColor=#008a00;strokeColor=#005700;fontColor=#ffffff;" vertex="1" parent="1">
                    <mxGeometry x="1020" y="850" width="120" height="80" as="geometry"/>
                </mxCell>
                <mxCell id="27" value="" style="edgeStyle=none;html=1;fontColor=#0d0c0c;" edge="1" parent="1" source="28" target="31">
                    <mxGeometry relative="1" as="geometry"/>
                </mxCell>
                <mxCell id="28" value="d = b2-4*a*c" style="whiteSpace=wrap;html=1;fillColor=#d80073;strokeColor=#A50040;fontColor=#ffffff;" vertex="1" parent="1">
                    <mxGeometry x="600" y="860" width="120" height="60" as="geometry"/>
                </mxCell>
                <mxCell id="29" value="" style="edgeStyle=none;html=1;fontColor=#0d0c0c;" edge="1" parent="1" source="31" target="33">
                    <mxGeometry relative="1" as="geometry">
                        <Array as="points">
                            <mxPoint x="860" y="1030"/>
                        </Array>
                    </mxGeometry>
                </mxCell>
                <mxCell id="30" value="" style="edgeStyle=none;html=1;fontColor=#0d0c0c;" edge="1" parent="1" source="31" target="36">
                    <mxGeometry relative="1" as="geometry">
                        <Array as="points">
                            <mxPoint x="520" y="1030"/>
                        </Array>
                    </mxGeometry>
                </mxCell>
                <mxCell id="31" value="d==0" style="rhombus;whiteSpace=wrap;html=1;fillColor=#1ba1e2;strokeColor=#006EAF;fontColor=#ffffff;" vertex="1" parent="1">
                    <mxGeometry x="610" y="990" width="100" height="80" as="geometry"/>
                </mxCell>
                <mxCell id="32" value="" style="edgeStyle=none;html=1;fontColor=#0d0c0c;" edge="1" parent="1" source="33">
                    <mxGeometry relative="1" as="geometry">
                        <mxPoint x="860" y="1420" as="targetPoint"/>
                    </mxGeometry>
                </mxCell>
                <mxCell id="33" value="x1= -b/2a&lt;br&gt;x2= x1" style="whiteSpace=wrap;html=1;fillColor=#a20025;strokeColor=#6F0000;fontColor=#ffffff;" vertex="1" parent="1">
                    <mxGeometry x="800" y="1050" width="120" height="60" as="geometry"/>
                </mxCell>
                <mxCell id="34" value="" style="edgeStyle=none;html=1;fontColor=#0d0c0c;" edge="1" parent="1" source="36" target="38">
                    <mxGeometry relative="1" as="geometry">
                        <Array as="points">
                            <mxPoint x="700" y="1160"/>
                        </Array>
                    </mxGeometry>
                </mxCell>
                <mxCell id="35" value="" style="edgeStyle=none;html=1;fontColor=#0d0c0c;" edge="1" parent="1" source="36" target="40">
                    <mxGeometry relative="1" as="geometry">
                        <Array as="points">
                            <mxPoint x="350" y="1160"/>
                        </Array>
                    </mxGeometry>
                </mxCell>
                <mxCell id="36" value="d&amp;gt;0" style="rhombus;whiteSpace=wrap;html=1;fillColor=#e51400;strokeColor=#B20000;fontColor=#ffffff;" vertex="1" parent="1">
                    <mxGeometry x="480" y="1120" width="80" height="80" as="geometry"/>
                </mxCell>
                <mxCell id="37" value="" style="edgeStyle=none;html=1;fontColor=#0d0c0c;" edge="1" parent="1" source="38">
                    <mxGeometry relative="1" as="geometry">
                        <mxPoint x="700" y="1420" as="targetPoint"/>
                    </mxGeometry>
                </mxCell>
                <mxCell id="38" value="x1=(-b+raìz d)/2a&lt;br&gt;x2 =(-b-raìz d)/2a" style="whiteSpace=wrap;html=1;fillColor=#76608a;strokeColor=#432D57;fontColor=#ffffff;" vertex="1" parent="1">
                    <mxGeometry x="640" y="1200" width="120" height="60" as="geometry"/>
                </mxCell>
                <mxCell id="39" value="" style="edgeStyle=none;html=1;exitX=0.5;exitY=0.875;exitDx=0;exitDy=0;exitPerimeter=0;fontColor=#0d0c0c;" edge="1" parent="1" source="40">
                    <mxGeometry relative="1" as="geometry">
                        <mxPoint x="840" y="1420" as="targetPoint"/>
                        <Array as="points">
                            <mxPoint x="350" y="1420"/>
                        </Array>
                    </mxGeometry>
                </mxCell>
                <mxCell id="40" value="No se puede realizar la ecuaciòn" style="shape=document;whiteSpace=wrap;html=1;boundedLbl=1;fillColor=#e3c800;strokeColor=#B09500;fontColor=#000000;" vertex="1" parent="1">
                    <mxGeometry x="290" y="1180" width="120" height="80" as="geometry"/>
                </mxCell>
                <mxCell id="41" value="" style="endArrow=classic;html=1;fontColor=#0d0c0c;" edge="1" parent="1">
                    <mxGeometry width="50" height="50" relative="1" as="geometry">
                        <mxPoint x="839.5" y="1420" as="sourcePoint"/>
                        <mxPoint x="839.5" y="1490" as="targetPoint"/>
                    </mxGeometry>
                </mxCell>
                <mxCell id="42" value="FIN" style="ellipse;whiteSpace=wrap;html=1;fillColor=#6d8764;strokeColor=#3A5431;fontColor=#ffffff;" vertex="1" parent="1">
                    <mxGeometry x="780" y="1490" width="120" height="80" as="geometry"/>
                </mxCell>
                <mxCell id="43" value="TRUE" style="text;html=1;strokeColor=none;fillColor=none;align=center;verticalAlign=middle;whiteSpace=wrap;rounded=0;fontColor=#0d0c0c;" vertex="1" parent="1">
                    <mxGeometry x="930" y="790" width="60" height="30" as="geometry"/>
                </mxCell>
                <mxCell id="44" value="TRUE" style="text;html=1;strokeColor=none;fillColor=none;align=center;verticalAlign=middle;whiteSpace=wrap;rounded=0;fontColor=#0d0c0c;" vertex="1" parent="1">
                    <mxGeometry x="590" y="1140" width="60" height="30" as="geometry"/>
                </mxCell>
                <mxCell id="45" value="TRUE" style="text;html=1;strokeColor=none;fillColor=none;align=center;verticalAlign=middle;whiteSpace=wrap;rounded=0;fontColor=#0d0c0c;" vertex="1" parent="1">
                    <mxGeometry x="740" y="1010" width="60" height="30" as="geometry"/>
                </mxCell>
                <mxCell id="46" value="FLASE" style="text;html=1;strokeColor=none;fillColor=none;align=center;verticalAlign=middle;whiteSpace=wrap;rounded=0;fontColor=#0d0c0c;" vertex="1" parent="1">
                    <mxGeometry x="700" y="790" width="60" height="30" as="geometry"/>
                </mxCell>
                <mxCell id="47" value="FALSE" style="text;html=1;strokeColor=none;fillColor=none;align=center;verticalAlign=middle;whiteSpace=wrap;rounded=0;fontColor=#0d0c0c;" vertex="1" parent="1">
                    <mxGeometry x="550" y="1010" width="60" height="30" as="geometry"/>
                </mxCell>
                <mxCell id="48" value="FALSE" style="text;html=1;strokeColor=none;fillColor=none;align=center;verticalAlign=middle;whiteSpace=wrap;rounded=0;fontColor=#0d0c0c;" vertex="1" parent="1">
                    <mxGeometry x="390" y="1140" width="60" height="30" as="geometry"/>
                </mxCell>
            </root>
        </mxGraphModel>
    </diagram>
</mxfile>